<?xml version="1.0" encoding="UTF-8" standalone="no"?>
<!-- Generator: Gravit.io -->
<svg xmlns="http://www.w3.org/2000/svg" xmlns:xlink="http://www.w3.org/1999/xlink" style="isolation:isolate" viewBox="0 0 512 512" width="512pt" height="512pt"><defs><clipPath id="_clipPath_Yc9je3iyXmKY7UXaWPwGfFW1ty4YlxcI"><rect width="512" height="512"/></clipPath></defs><g clip-path="url(#_clipPath_Yc9je3iyXmKY7UXaWPwGfFW1ty4YlxcI)"><rect width="512" height="512" style="fill:rgb(34,46,60)" fill-opacity="0"/><path d=" M 76.8 0 L 435.2 0 C 477.587 0 512 34.413 512 76.8 L 512 435.2 C 512 477.587 477.587 512 435.2 512 L 76.8 512 C 34.413 512 0 477.587 0 435.2 L 0 76.8 C 0 34.413 34.413 0 76.8 0 Z " fill="rgb(34,46,60)"/><path d=" M 365.79 352.959 C 241.967 411.888 165.121 362.583 115.93 332.637 C 112.886 330.75 107.712 333.078 112.201 338.234 C 128.589 358.105 182.297 406 252.4 406 C 322.552 406 364.286 367.722 369.507 361.044 C 374.692 354.424 371.03 350.771 365.789 352.959 L 365.79 352.959 Z  M 400.565 333.754 C 397.24 329.424 380.346 328.616 369.714 329.922 C 359.066 331.191 343.082 337.699 344.472 341.606 C 345.185 343.07 346.64 342.414 353.955 341.756 C 361.291 341.024 381.839 338.431 386.121 344.028 C 390.423 349.664 379.567 376.512 377.585 380.842 C 375.669 385.172 378.316 386.289 381.915 383.405 C 385.463 380.522 391.888 373.057 396.199 362.492 C 400.481 351.869 403.092 337.051 400.564 333.754 L 400.565 333.754 Z " fill="rgb(88,167,51)"/><path d=" M 282.533 232.714 C 282.533 248.176 282.923 261.071 275.108 274.802 C 268.8 285.967 258.808 292.833 247.644 292.833 C 232.405 292.833 223.529 281.222 223.529 264.085 C 223.529 230.257 253.839 224.117 282.533 224.117 L 282.533 232.714 Z  M 322.556 329.452 C 319.932 331.796 316.136 331.964 313.178 330.4 C 300.004 319.46 297.659 314.38 290.403 303.941 C 268.633 326.158 253.226 332.801 224.981 332.801 C 191.6 332.801 165.587 312.202 165.587 270.951 C 165.587 238.743 183.06 216.805 207.899 206.088 C 229.447 196.597 259.534 194.923 282.533 192.3 L 282.533 187.164 C 282.533 177.73 283.257 166.566 277.732 158.417 C 272.875 151.104 263.609 148.089 255.458 148.089 C 240.332 148.089 226.823 155.848 223.529 171.924 C 222.859 175.498 220.236 179.015 216.664 179.182 L 178.147 175.052 C 174.91 174.325 171.337 171.702 172.23 166.733 C 181.106 120.068 223.249 106 260.984 106 C 280.298 106 305.529 111.136 320.768 125.762 C 340.083 143.791 338.24 167.85 338.24 194.03 L 338.24 255.879 C 338.24 274.468 345.944 282.617 353.2 292.666 C 355.767 296.238 356.326 300.537 353.088 303.215 C 344.994 309.969 330.592 322.53 322.666 329.564 L 322.555 329.452" fill-rule="evenodd" fill="rgb(255,255,255)"/></g></svg>