<?xml version="1.0" encoding="UTF-8" standalone="no"?>
<!-- Generator: Gravit.io -->
<svg xmlns="http://www.w3.org/2000/svg" xmlns:xlink="http://www.w3.org/1999/xlink" style="isolation:isolate" viewBox="0 0 512 512" width="512pt" height="512pt"><defs><clipPath id="_clipPath_FezK9Nitl2m91lOAtSrntmUm2gUJP9h3"><rect width="512" height="512"/></clipPath></defs><g clip-path="url(#_clipPath_FezK9Nitl2m91lOAtSrntmUm2gUJP9h3)"><path d="M 76.8 0 L 435.2 0 C 477.587 0 512 34.413 512 76.8 L 512 435.2 C 512 477.587 477.587 512 435.2 512 L 76.8 512 C 34.413 512 0 477.587 0 435.2 L 0 76.8 C 0 34.413 34.413 0 76.8 0 Z" style="stroke:none;fill:#F7931A;stroke-miterlimit:10;"/><path d=" M 388.343 221.491 C 393.88 184.483 365.702 164.589 327.173 151.317 L 339.672 101.185 L 309.156 93.58 L 296.988 142.391 C 288.966 140.392 280.727 138.506 272.54 136.637 L 284.794 87.505 L 254.296 79.9 L 241.79 130.014 C 235.149 128.502 228.631 127.007 222.304 125.434 L 222.338 125.278 L 180.255 114.77 L 172.137 147.362 C 172.137 147.362 194.778 152.551 194.3 152.873 C 206.659 155.958 208.893 164.137 208.519 170.62 L 194.283 227.731 C 195.134 227.949 196.238 228.262 197.455 228.748 C 196.438 228.496 195.352 228.218 194.23 227.949 L 174.275 307.953 C 172.763 311.707 168.93 317.339 160.291 315.201 C 160.595 315.644 138.11 309.665 138.11 309.665 L 122.961 344.595 L 162.672 354.495 C 170.06 356.346 177.3 358.284 184.427 360.109 L 171.798 410.815 L 202.279 418.42 L 214.786 368.253 C 223.112 370.513 231.195 372.599 239.104 374.563 L 226.641 424.495 L 257.156 432.1 L 269.784 381.49 C 321.82 391.338 360.948 387.366 377.418 340.302 C 390.69 302.408 376.758 280.549 349.38 266.295 C 369.318 261.697 384.337 248.582 388.343 221.491 Z  M 318.621 319.26 C 309.191 357.154 245.388 336.669 224.702 331.532 L 241.459 264.357 C 262.145 269.519 328.477 279.74 318.621 319.26 Z  M 328.06 220.943 C 319.456 255.413 266.351 237.9 249.125 233.607 L 264.318 172.68 C 281.544 176.974 337.021 184.987 328.06 220.943 Z " fill="rgb(255,255,255)"/></g></svg>