<?xml version="1.0" encoding="UTF-8" standalone="no"?>
<!-- Generator: Gravit.io -->
<svg xmlns="http://www.w3.org/2000/svg" xmlns:xlink="http://www.w3.org/1999/xlink" style="isolation:isolate" viewBox="0 0 512 512" width="512pt" height="512pt"><defs><clipPath id="_clipPath_SVsZODoHDuW9zeeZQkyueFVt404acslc"><rect width="512" height="512"/></clipPath></defs><g clip-path="url(#_clipPath_SVsZODoHDuW9zeeZQkyueFVt404acslc)"><path d="M 76.8 0 L 435.2 0 C 477.587 0 512 34.413 512 76.8 L 512 435.2 C 512 477.587 477.587 512 435.2 512 L 76.8 512 C 34.413 512 0 477.587 0 435.2 L 0 76.8 C 0 34.413 34.413 0 76.8 0 Z" style="stroke:none;fill:#00D632;stroke-miterlimit:10;"/><path d=" M 339.299 190.207 C 343.299 194.207 349.938 194.207 353.698 190.207 L 373.696 169.41 C 377.935 165.41 377.695 158.211 373.216 153.892 C 357.501 140.204 339.232 129.765 319.462 123.175 L 325.781 92.779 C 327.141 86.139 322.181 79.9 315.542 79.9 L 276.827 79.9 C 271.839 79.953 267.57 83.489 266.588 88.379 L 260.988 115.416 C 209.474 118.056 165.799 144.213 165.799 197.807 C 165.799 244.201 201.875 264.119 240.031 277.797 C 276.107 291.556 295.224 296.675 295.224 316.033 C 295.224 335.951 276.187 347.63 248.03 347.63 C 222.433 347.63 195.556 339.07 174.758 318.193 C 172.808 316.239 170.16 315.141 167.399 315.141 C 164.638 315.141 161.99 316.239 160.04 318.193 L 138.442 339.79 C 134.212 344.036 134.212 350.903 138.442 355.149 C 155.24 371.707 176.518 383.705 200.771 390.345 L 194.852 418.901 C 193.492 425.541 198.371 431.7 205.011 431.78 L 243.806 432.1 C 248.854 432.122 253.211 428.569 254.205 423.621 L 259.804 396.504 C 321.781 392.344 359.537 358.188 359.537 308.354 C 359.537 262.439 321.941 243.081 276.347 227.323 C 250.27 217.644 227.712 211.005 227.712 191.087 C 227.712 171.73 248.75 164.05 269.867 164.05 C 296.744 164.05 322.581 175.169 339.459 190.367 L 339.299 190.207 Z " fill="rgb(255,255,255)"/></g></svg>