<?xml version="1.0" encoding="UTF-8" standalone="no"?>
<!-- Generator: Gravit.io -->
<svg xmlns="http://www.w3.org/2000/svg" xmlns:xlink="http://www.w3.org/1999/xlink" style="isolation:isolate" viewBox="0 0 512 512" width="512pt" height="512pt"><defs><clipPath id="_clipPath_GUVjbjNTefQoweMop0ulEzEIfZkHhKfj"><rect width="512" height="512"/></clipPath></defs><g clip-path="url(#_clipPath_GUVjbjNTefQoweMop0ulEzEIfZkHhKfj)"><path d=" M 76.8 0 L 435.2 0 C 477.587 0 512 34.413 512 76.8 L 512 435.2 C 512 477.587 477.587 512 435.2 512 L 76.8 512 C 34.413 512 0 477.587 0 435.2 L 0 76.8 C 0 34.413 34.413 0 76.8 0 Z " fill="rgb(52,93,157)"/><circle vector-effect="non-scaling-stroke" cx="256" cy="256" r="175" fill="rgb(255,255,255)"/><path d=" M 256 41 C 137.259 41 41 137.259 41 256 C 41 374.741 137.259 471 256 471 C 374.741 471 470.999 374.741 470.999 256 L 470.999 256 C 471.165 199.144 448.738 144.551 408.652 104.231 C 368.566 63.911 314.105 41.166 257.249 41 L 256 41 Z  M 259.644 263.288 L 237.259 338.772 L 356.992 338.772 C 358.594 338.716 360.152 339.299 361.324 340.393 C 362.496 341.486 363.185 343.001 363.239 344.603 L 363.239 346.581 L 352.827 382.501 C 351.882 386 348.64 388.377 345.019 388.227 L 161.775 388.227 L 192.489 283.591 L 158.131 294.002 L 165.939 270.056 L 200.297 259.644 L 243.506 112.84 C 244.484 109.365 247.705 107.003 251.314 107.114 L 297.646 107.114 C 299.248 107.058 300.806 107.641 301.978 108.734 C 303.15 109.828 303.839 111.343 303.893 112.945 L 303.893 114.923 L 267.452 238.821 L 301.811 228.409 L 294.522 253.397 L 259.644 263.288 Z " fill="rgb(52,93,157)"/></g></svg>