<?xml version="1.0" encoding="UTF-8" standalone="no"?>
<!-- Generator: Gravit.io -->
<svg xmlns="http://www.w3.org/2000/svg" xmlns:xlink="http://www.w3.org/1999/xlink" style="isolation:isolate" viewBox="0 0 512 512" width="512pt" height="512pt"><defs><clipPath id="_clipPath_eEryVlfRWOqKJxopSL1sJNpeEjm9VTAa"><rect width="512" height="512"/></clipPath></defs><g clip-path="url(#_clipPath_eEryVlfRWOqKJxopSL1sJNpeEjm9VTAa)"><g><path d=" M 76.8 0 L 435.2 0 C 477.587 0 512 34.413 512 76.8 L 512 435.2 C 512 477.587 477.587 512 435.2 512 L 76.8 512 C 34.413 512 0 477.587 0 435.2 L 0 76.8 C 0 34.413 34.413 0 76.8 0 Z " fill="rgb(0,0,0)"/><path d=" M 409.465 252.829 C 417.715 252.829 425.123 258.273 427.704 265.962 L 391.281 265.962 C 393.863 258.217 401.215 252.829 409.465 252.829 L 409.465 252.829 Z  M 446 272.584 C 446 262.987 442.24 253.952 435.505 247.105 C 428.715 240.258 419.735 236.442 410.194 236.442 C 410.026 236.442 409.858 236.442 409.745 236.442 C 399.868 236.554 390.496 240.482 383.48 247.498 C 376.465 254.513 372.537 263.829 372.424 273.763 C 372.312 283.921 376.185 293.461 383.368 300.757 C 390.552 308.053 400.092 312.038 410.194 312.038 L 410.25 312.038 C 423.551 312.038 436.01 304.91 442.801 293.517 L 443.643 292.058 L 428.715 284.706 L 427.985 285.941 C 424.225 292.114 417.771 295.762 410.587 295.762 C 401.383 295.762 393.47 289.645 391.001 280.89 L 446 280.89 L 446 272.584 L 446 272.584 L 446 272.584 Z  M 352.445 223.534 C 345.935 223.534 340.66 218.258 340.66 211.748 C 340.66 205.238 345.935 199.962 352.445 199.962 C 358.955 199.962 364.231 205.238 364.231 211.748 C 364.287 218.258 358.955 223.534 352.445 223.534 Z  M 343.41 310.522 L 361.481 310.522 L 361.481 237.957 L 343.41 237.957 L 343.41 310.522 Z  M 308.839 201.534 L 326.91 201.534 L 326.91 310.578 L 308.839 310.578 L 308.839 201.534 Z  M 274.268 310.522 L 292.339 310.522 L 292.339 201.534 L 274.268 201.534 L 274.268 310.522 L 274.268 310.522 Z  M 226.733 294.135 C 215.789 294.135 206.865 285.211 206.865 274.268 C 206.865 263.324 215.789 254.401 226.733 254.401 C 237.676 254.401 246.6 263.324 246.6 274.268 C 246.6 285.211 237.676 294.135 226.733 294.135 L 226.733 294.135 Z  M 226.733 236.385 C 205.855 236.385 188.907 253.39 188.907 274.211 C 188.907 295.033 205.911 312.038 226.733 312.038 C 247.554 312.038 264.559 295.033 264.559 274.211 C 264.559 253.39 247.61 236.385 226.733 236.385 L 226.733 236.385 L 226.733 236.385 Z  M 149.565 236.498 C 148.555 236.442 147.657 236.385 146.647 236.385 C 137.555 236.385 128.912 240.089 122.683 246.712 C 116.453 240.146 107.867 236.385 98.831 236.385 C 80.76 236.385 66 251.089 66 269.161 L 66 310.522 L 83.678 310.522 L 83.678 269.666 C 83.678 262.145 89.852 255.242 97.091 254.513 C 97.597 254.457 98.102 254.457 98.607 254.457 C 106.8 254.457 113.479 261.135 113.479 269.329 L 113.479 310.578 L 131.55 310.578 L 131.55 269.666 C 131.55 262.201 137.667 255.298 144.963 254.569 C 145.468 254.513 145.973 254.513 146.479 254.513 C 154.672 254.513 161.351 261.135 161.407 269.273 L 161.407 310.634 L 179.478 310.634 L 179.478 269.778 C 179.478 261.472 176.391 253.503 170.891 247.329 C 165.392 241.044 157.815 237.227 149.565 236.498 Z " fill-rule="evenodd" fill="rgb(255,255,255)"/></g></g></svg>