<?xml version="1.0" encoding="UTF-8" standalone="no"?>
<!-- Generator: Gravit.io -->
<svg xmlns="http://www.w3.org/2000/svg" xmlns:xlink="http://www.w3.org/1999/xlink" style="isolation:isolate" viewBox="0 0 512 512" width="512pt" height="512pt"><defs><clipPath id="_clipPath_j2Ka47W5v9H5HQKXVmTSz6Wm2a41aYgi"><rect width="512" height="512"/></clipPath></defs><g clip-path="url(#_clipPath_j2Ka47W5v9H5HQKXVmTSz6Wm2a41aYgi)"><path d=" M 76.8 0 L 435.2 0 C 477.587 0 512 34.413 512 76.8 L 512 435.2 C 512 477.587 477.587 512 435.2 512 L 76.8 512 C 34.413 512 0 477.587 0 435.2 L 0 76.8 C 0 34.413 34.413 0 76.8 0 Z " fill="rgb(255,255,255)"/><path d=" M 224.538 149.206 C 219.49 149.205 215.192 152.877 214.404 157.864 L 197.561 264.664 L 182.085 362.8 L 182.076 362.882 L 182.095 362.8 L 197.57 264.664 C 198.357 259.676 202.651 256.006 207.699 256.006 L 257.042 256.006 C 306.7 256.006 348.849 219.776 356.546 170.681 C 357.133 166.951 357.447 163.257 357.518 159.611 L 357.518 159.605 L 357.512 159.605 C 344.892 152.984 330.073 149.206 313.835 149.206 L 224.538 149.206 Z " fill="rgb(0,28,100)"/><path d=" M 357.514 159.607 C 357.445 163.253 357.127 166.951 356.542 170.681 C 348.845 219.776 306.697 256.006 257.038 256.006 L 207.695 256.006 C 202.647 256.006 198.353 259.676 197.566 264.664 L 182.091 362.8 L 172.379 424.37 C 172.001 426.777 172.694 429.229 174.277 431.081 C 175.86 432.933 178.175 434 180.611 434 L 234.17 434 C 239.218 434 243.516 430.328 244.304 425.342 L 258.413 335.864 C 259.204 330.876 263.5 327.2 268.548 327.2 L 300.085 327.2 C 349.744 327.2 391.886 290.972 399.584 241.881 C 405.048 207.031 387.511 175.327 357.516 159.607 L 357.514 159.607 Z " fill="rgb(0,112,224)"/><path d=" M 163.687 78 C 158.638 78 154.339 81.675 153.553 86.664 L 111.526 353.165 C 111.146 355.572 111.839 358.026 113.422 359.879 C 115.005 361.733 117.321 362.8 119.758 362.8 L 182.084 362.8 L 197.559 264.664 L 214.402 157.864 C 215.19 152.877 219.488 149.205 224.536 149.206 L 313.83 149.206 C 330.071 149.206 344.891 152.99 357.512 159.602 C 358.372 114.906 321.492 78 270.779 78 L 163.687 78 Z " fill="rgb(0,48,135)"/></g></svg>