<?xml version="1.0" encoding="UTF-8" standalone="no"?>
<!-- Generator: Gravit.io -->
<svg xmlns="http://www.w3.org/2000/svg" xmlns:xlink="http://www.w3.org/1999/xlink" style="isolation:isolate" viewBox="0 0 512 512" width="512pt" height="512pt"><defs><clipPath id="_clipPath_g3Z7HxI5cipMs0vHrDuBXSmhYkFpQFGG"><rect width="512" height="512"/></clipPath></defs><g clip-path="url(#_clipPath_g3Z7HxI5cipMs0vHrDuBXSmhYkFpQFGG)"><path d="M 76.8 0 L 435.2 0 C 477.587 0 512 34.413 512 76.8 L 512 435.2 C 512 477.587 477.587 512 435.2 512 L 76.8 512 C 34.413 512 0 477.587 0 435.2 L 0 76.8 C 0 34.413 34.413 0 76.8 0 Z" style="stroke:none;fill:#FFFFFF;stroke-miterlimit:10;"/><g><path d=" M 412.918 386.808 C 383.778 382.079 363.96 354.582 368.689 325.442 C 373.418 296.302 400.915 276.484 430.055 281.213 C 459.195 285.942 479.013 313.44 474.284 342.579 C 469.555 371.719 442.057 391.537 412.918 386.808 Z " fill="rgb(254,201,87)"/><path d=" M 346.055 386.809 C 316.915 382.08 297.097 354.582 301.826 325.443 C 306.555 296.303 334.052 276.485 363.192 281.214 C 392.332 285.943 412.15 313.44 407.421 342.58 C 402.692 371.72 375.194 391.538 346.055 386.809 Z " fill="rgb(255,107,107)"/><path d=" M 50.393 230.372 L 139.542 230.372 C 145.702 230.372 150.686 225.388 150.686 219.228 C 150.686 213.069 145.702 208.084 139.542 208.084 L 50.393 208.084 C 44.234 208.084 39.25 213.069 39.25 219.228 C 39.25 225.388 44.234 230.372 50.393 230.372 Z " fill="rgb(84,160,255)"/><path d=" M 172.973 230.372 L 262.123 230.372 C 268.282 230.372 273.266 225.388 273.266 219.228 C 273.266 213.069 268.282 208.084 262.123 208.084 L 172.973 208.084 C 166.814 208.084 161.83 213.069 161.83 219.228 C 161.83 225.388 166.814 230.372 172.973 230.372 Z " fill="rgb(84,160,255)"/><path d=" M 295.554 230.372 L 384.703 230.372 C 390.862 230.372 395.846 225.388 395.846 219.228 C 395.846 213.069 390.862 208.084 384.703 208.084 L 295.554 208.084 C 289.394 208.084 284.41 213.069 284.41 219.228 C 284.41 225.388 289.394 230.372 295.554 230.372 Z " fill="rgb(84,160,255)"/><path d=" M 48.162 390.17 L 112.347 390.17 C 118.507 390.17 123.491 385.186 123.491 379.026 C 123.491 372.867 118.507 367.883 112.347 367.883 L 48.162 367.883 C 42.003 367.883 37.019 372.867 37.019 379.026 C 37.019 385.186 42.014 390.17 48.162 390.17 Z " fill="rgb(84,160,255)"/><path d=" M 144.45 390.17 L 208.635 390.17 C 214.795 390.17 219.779 385.186 219.779 379.026 C 219.779 372.867 214.795 367.883 208.635 367.883 L 144.45 367.883 C 138.291 367.883 133.307 372.867 133.307 379.026 C 133.307 385.186 138.291 390.17 144.45 390.17 Z " fill="rgb(84,160,255)"/><path d=" M 48.162 336.683 L 208.635 336.683 C 214.795 336.683 219.779 331.698 219.779 325.539 C 219.779 319.38 214.795 314.395 208.635 314.395 L 48.162 314.395 C 42.003 314.395 37.019 319.38 37.019 325.539 C 37.019 331.698 42.014 336.683 48.162 336.683 Z " fill="rgb(84,160,255)"/><path d=" M 48.162 144.117 L 96.306 144.117 C 102.466 144.117 107.45 139.133 107.45 132.974 C 107.45 126.814 102.466 121.83 96.306 121.83 L 48.162 121.83 C 42.003 121.83 37.019 126.814 37.019 132.974 C 37.019 139.133 42.014 144.117 48.162 144.117 Z " fill="rgb(84,160,255)"/></g></g></svg>