<?xml version="1.0" encoding="UTF-8" standalone="no"?>
<!-- Generator: Gravit.io -->
<svg xmlns="http://www.w3.org/2000/svg" xmlns:xlink="http://www.w3.org/1999/xlink" style="isolation:isolate" viewBox="0 0 512 512" width="512pt" height="512pt"><defs><clipPath id="_clipPath_69oGViolos44ZsUXKxpmN1u6twZxeHgz"><rect width="512" height="512"/></clipPath></defs><g clip-path="url(#_clipPath_69oGViolos44ZsUXKxpmN1u6twZxeHgz)"><path d="M 76.8 0 L 435.2 0 C 477.587 0 512 34.413 512 76.8 L 512 435.2 C 512 477.587 477.587 512 435.2 512 L 76.8 512 C 34.413 512 0 477.587 0 435.2 L 0 76.8 C 0 34.413 34.413 0 76.8 0 Z" style="stroke:none;fill:#3396CD;stroke-miterlimit:10;"/><path d=" M 381.4 105.3 C 392.4 123.4 397.3 142 397.3 165.6 C 397.3 240.7 333.2 338.3 281.1 406.8 L 162.3 406.8 L 114.7 121.8 L 218.8 111.9 L 244.1 314.7 C 267.6 276.3 296.7 216 296.7 175 C 296.7 152.5 292.8 137.2 286.8 124.6 L 381.4 105.3 Z " fill="rgb(255,255,255)"/></g></svg>